<svg fill="none" height="187" viewBox="0 0 374 187" width="374" xmlns="http://www.w3.org/2000/svg">
    <rect fill="white" height="165.988" rx="20"
        transform="matrix(0.998397 0.0565914 -0.0539107 0.998546 9.54883 0.202271)" width="365.035" />
    <rect fill="#AAE37B" height="166" rx="20" width="365" x="5" y="10.2023" />
    <mask style="mask-type:alpha" height="167" id="mask0_4507_5393" maskUnits="userSpaceOnUse" width="366"
        x="4" y="10">
        <rect fill="#FFCB43" height="166" rx="20" width="365" x="4.99805" y="10.2023" />
    </mask>
    <g mask="url(#mask0_4507_5393)">
        <circle cx="380.299" cy="165.404" r="85" stroke="white" stroke-width="30" />
        <mask style="mask-type:alpha" height="201" id="mask1_4507_5393" maskUnits="userSpaceOnUse" width="201"
            x="280" y="65">
            <circle cx="380.299" cy="165.404" r="85" stroke="white" stroke-width="30" />
        </mask>
        <g mask="url(#mask1_4507_5393)">
            <circle cx="286.799" cy="96.9044" fill="black" r="1.5" />
            <circle cx="286.799" cy="109.904" fill="black" r="1.5" />
            <circle cx="286.799" cy="122.904" fill="black" r="1.5" />
            <circle cx="286.799" cy="134.904" fill="black" r="1.5" />
            <circle cx="286.799" cy="147.904" fill="black" r="1.5" />
            <circle cx="286.799" cy="160.904" fill="black" r="1.5" />
            <circle cx="299.799" cy="96.9044" fill="black" r="1.5" />
            <circle cx="299.799" cy="109.904" fill="black" r="1.5" />
            <circle cx="299.799" cy="122.904" fill="black" r="1.5" />
            <circle cx="299.799" cy="134.904" fill="black" r="1.5" />
            <circle cx="299.799" cy="147.904" fill="black" r="1.5" />
            <circle cx="299.799" cy="160.904" fill="black" r="1.5" />
            <circle cx="311.799" cy="96.9044" fill="black" r="1.5" />
            <circle cx="311.799" cy="109.904" fill="black" r="1.5" />
            <circle cx="311.799" cy="122.904" fill="black" r="1.5" />
            <circle cx="311.799" cy="134.904" fill="black" r="1.5" />
            <circle cx="311.799" cy="147.904" fill="black" r="1.5" />
            <circle cx="311.799" cy="160.904" fill="black" r="1.5" />
            <circle cx="324.799" cy="96.9044" fill="black" r="1.5" />
            <circle cx="324.799" cy="109.904" fill="black" r="1.5" />
            <circle cx="324.799" cy="122.904" fill="black" r="1.5" />
            <circle cx="324.799" cy="134.904" fill="black" r="1.5" />
            <circle cx="324.799" cy="147.904" fill="black" r="1.5" />
            <circle cx="324.799" cy="160.904" fill="black" r="1.5" />
            <circle cx="324.799" cy="70.9043" fill="black" r="1.5" />
            <circle cx="324.799" cy="83.9043" fill="black" r="1.5" />
            <circle cx="324.799" cy="96.9043" fill="black" r="1.5" />
            <circle cx="337.799" cy="70.9043" fill="black" r="1.5" />
            <circle cx="337.799" cy="83.9043" fill="black" r="1.5" />
            <circle cx="337.799" cy="96.9043" fill="black" r="1.5" />
            <circle cx="350.799" cy="70.9043" fill="black" r="1.5" />
            <circle cx="350.799" cy="83.9043" fill="black" r="1.5" />
            <circle cx="350.799" cy="96.9043" fill="black" r="1.5" />
            <circle cx="362.799" cy="70.9043" fill="black" r="1.5" />
            <circle cx="362.799" cy="83.9043" fill="black" r="1.5" />
            <circle cx="362.799" cy="96.9043" fill="black" r="1.5" />
            <circle cx="286.799" cy="171.904" fill="black" r="1.5" />
            <circle cx="299.799" cy="171.904" fill="black" r="1.5" />
            <circle cx="311.799" cy="171.904" fill="black" r="1.5" />
            <circle cx="324.799" cy="171.904" fill="black" r="1.5" />
        </g>
    </g>
    <rect fill="black" height="21" transform="rotate(-38.45 120.299 31.5137)" width="2" x="120.299"
        y="31.5137" />
    <rect fill="black" height="21" transform="rotate(60.55 245.586 127.404)" width="2" x="245.586"
        y="127.404" />
    <rect fill="white" height="21" transform="rotate(28.55 248.336 28.4044)" width="2" x="248.336"
        y="28.4044" />
    <rect fill="white" height="34.8479" transform="rotate(-58.4151 137.299 138.664)" width="3"
        x="137.299" y="138.664" />
</svg>
