<svg height="24" id="ic-lightmode" viewBox="0 0 24 24" width="24"
    xmlns="http://www.w3.org/2000/svg">
    <rect fill="none" height="24" id="Rectangle_928" width="24" />
    <path d="M12,7a5,5,0,1,0,5,5,5,5,0,0,0-5-5ZM2,13H4a1,1,0,0,0,0-2H2a1,1,0,0,0,0,2Zm18,0h2a1,1,0,0,0,0-2H20a1,1,0,0,0,0,2ZM11,2V4a1,1,0,0,0,2,0V2a1,1,0,0,0-2,0Zm0,18v2a1,1,0,0,0,2,0V20a1,1,0,0,0-2,0ZM5.99,4.58A1,1,0,0,0,4.58,5.99L5.64,7.05A1,1,0,0,0,7.05,5.64ZM18.36,16.95a1,1,0,0,0-1.41,1.41l1.06,1.06a1,1,0,0,0,1.41-1.41ZM19.42,5.99a1,1,0,0,0-1.41-1.41L16.95,5.64a1,1,0,0,0,1.41,1.41ZM7.05,18.36a1,1,0,0,0-1.41-1.41L4.58,18.01a1,1,0,0,0,1.41,1.41Z"
        fill="#fff"
        id="Path_472" />
</svg>
