<svg fill="none" height="187" viewBox="0 0 374 187" width="374" xmlns="http://www.w3.org/2000/svg">
    <rect fill="white" height="165.989" rx="20"
        transform="matrix(0.998402 0.0565012 -0.0539968 0.998541 8.96289 0)" width="365.618" />
    <rect fill="#C3AEFF" height="166" rx="20" width="366" x="3.99805" y="10.2021" />
    <mask style="mask-type:alpha" height="167" id="mask0_4525_6372" maskUnits="userSpaceOnUse" width="367"
        x="3" y="10">
        <rect fill="#FFCB43" height="166" rx="20" width="366" x="3.99805" y="10.2021" />
    </mask>
    <g mask="url(#mask0_4525_6372)">
        <circle cx="374.499" cy="7.49926" r="85" stroke="white"
            stroke-width="30" transform="rotate(-68.695 374.499 7.49926)" />
        <mask style="mask-type:alpha" height="201" id="mask1_4525_6372" maskUnits="userSpaceOnUse"
            width="201" x="274" y="-93">
            <circle cx="374.499" cy="7.49926" r="85" stroke="white"
                stroke-width="30" transform="rotate(-68.695 374.499 7.49926)" />
        </mask>
        <g mask="url(#mask1_4525_6372)">
            <circle cx="284.097" cy="86.5567" fill="black" r="1.5"
                transform="rotate(-68.695 284.097 86.5567)" />
            <circle cx="296.208" cy="91.2793" fill="black" r="1.5"
                transform="rotate(-68.695 296.208 91.2793)" />
            <circle cx="307.388" cy="95.6397" fill="black" r="1.5"
                transform="rotate(-68.695 307.388 95.6397)" />
            <circle cx="319.499" cy="100.363" fill="black" r="1.5"
                transform="rotate(-68.695 319.499 100.363)" />
            <circle cx="331.612" cy="105.086" fill="black" r="1.5"
                transform="rotate(-68.695 331.612 105.086)" />
            <circle cx="276.708" cy="69.7217" fill="black" r="1.5"
                transform="rotate(-68.695 276.708 69.7217)" />
            <circle cx="288.819" cy="74.4444" fill="black" r="1.5"
                transform="rotate(-68.695 288.819 74.4444)" />
            <circle cx="300.933" cy="79.168" fill="black" r="1.5"
                transform="rotate(-68.695 300.933 79.168)" />
            <circle cx="312.112" cy="83.5284" fill="black" r="1.5"
                transform="rotate(-68.695 312.112 83.5284)" />
            <circle cx="324.224" cy="88.251" fill="black" r="1.5"
                transform="rotate(-68.695 324.224 88.251)" />
            <circle cx="336.335" cy="92.9747" fill="black" r="1.5"
                transform="rotate(-68.695 336.335 92.9747)" />
            <circle cx="281.433" cy="57.6094" fill="black" r="1.5"
                transform="rotate(-68.695 281.433 57.6094)" />
            <circle cx="293.544" cy="62.3331" fill="black" r="1.5"
                transform="rotate(-68.695 293.544 62.3331)" />
            <circle cx="305.655" cy="67.0567" fill="black" r="1.5"
                transform="rotate(-68.695 305.655 67.0567)" />
            <circle cx="316.835" cy="71.4161" fill="black" r="1.5"
                transform="rotate(-68.695 316.835 71.4161)" />
            <circle cx="328.946" cy="76.1397" fill="black" r="1.5"
                transform="rotate(-68.695 328.946 76.1397)" />
            <circle cx="341.058" cy="80.8633" fill="black" r="1.5"
                transform="rotate(-68.695 341.058 80.8633)" />
            <circle cx="285.792" cy="46.4297" fill="black" r="1.5"
                transform="rotate(-68.695 285.792 46.4297)" />
            <circle cx="297.903" cy="51.1534" fill="black" r="1.5"
                transform="rotate(-68.695 297.903 51.1534)" />
            <circle cx="310.015" cy="55.877" fill="black" r="1.5"
                transform="rotate(-68.695 310.015 55.877)" />
            <circle cx="321.194" cy="60.2364" fill="black" r="1.5"
                transform="rotate(-68.695 321.194 60.2364)" />
            <circle cx="333.306" cy="64.96" fill="black" r="1.5"
                transform="rotate(-68.695 333.306 64.96)" />
            <circle cx="345.419" cy="69.6827" fill="black" r="1.5"
                transform="rotate(-68.695 345.419 69.6827)" />
            <circle cx="290.515" cy="34.3184" fill="black" r="1.5"
                transform="rotate(-68.695 290.515 34.3184)" />
            <circle cx="302.626" cy="39.042" fill="black" r="1.5"
                transform="rotate(-68.695 302.626 39.042)" />
            <circle cx="314.739" cy="43.7647" fill="black" r="1.5"
                transform="rotate(-68.695 314.739 43.7647)" />
            <circle cx="325.919" cy="48.125" fill="black" r="1.5"
                transform="rotate(-68.695 325.919 48.125)" />
            <circle cx="338.03" cy="52.8487" fill="black" r="1.5"
                transform="rotate(-68.695 338.03 52.8487)" />
            <circle cx="350.142" cy="57.5713" fill="black" r="1.5"
                transform="rotate(-68.695 350.142 57.5713)" />
            <circle cx="278.403" cy="29.5948" fill="black" r="1.5"
                transform="rotate(-68.695 278.403 29.5948)" />
            <circle cx="290.517" cy="34.3174" fill="black" r="1.5"
                transform="rotate(-68.695 290.517 34.3174)" />
            <circle cx="283.128" cy="17.4825" fill="black" r="1.5"
                transform="rotate(-68.695 283.128 17.4825)" />
            <circle cx="295.239" cy="22.2061" fill="black" r="1.5"
                transform="rotate(-68.695 295.239 22.2061)" />
            <circle cx="299.962" cy="10.0948" fill="black" r="1.5"
                transform="rotate(-68.695 299.962 10.0948)" />
            <circle cx="341.86" cy="109.083" fill="black" r="1.5"
                transform="rotate(-68.695 341.86 109.083)" />
            <circle cx="346.583" cy="96.9717" fill="black" r="1.5"
                transform="rotate(-68.695 346.583 96.9717)" />
            <circle cx="358.694" cy="101.694" fill="black" r="1.5"
                transform="rotate(-68.695 358.694 101.694)" />
            <circle cx="370.808" cy="106.418" fill="black" r="1.5"
                transform="rotate(-68.695 370.808 106.418)" />
            <circle cx="351.308" cy="84.8594" fill="black" r="1.5"
                transform="rotate(-68.695 351.308 84.8594)" />
            <circle cx="363.419" cy="89.5831" fill="black" r="1.5"
                transform="rotate(-68.695 363.419 89.5831)" />
            <circle cx="355.667" cy="73.6797" fill="black" r="1.5"
                transform="rotate(-68.695 355.667 73.6797)" />
            <circle cx="367.778" cy="78.4034" fill="black" r="1.5"
                transform="rotate(-68.695 367.778 78.4034)" />
            <circle cx="360.39" cy="61.5684" fill="black" r="1.5"
                transform="rotate(-68.695 360.39 61.5684)" />
        </g>
    </g>
    <rect fill="black" height="12.5964" transform="rotate(-38.45 224 23.8652)" width="1.19966"
        x="224" y="23.8652" />
    <rect fill="black" height="12.5964" transform="rotate(60.55 297.969 87)" width="1.19966" x="297.969"
        y="87" />
    <rect fill="white" height="12.5964" transform="rotate(28.55 300.801 22)" width="1.19966" x="300.801"
        y="22" />
    <rect fill="white" height="20.9027" transform="rotate(-58.4151 234.197 88.1367)" width="1.79949"
        x="234.197" y="88.1367" />
</svg>
