<svg fill="none" height="188" viewBox="0 0 375 188" width="375" xmlns="http://www.w3.org/2000/svg">
    <rect fill="black" height="165.988" rx="20"
        transform="matrix(0.998397 0.0565914 -0.0539107 0.998546 9.55078 0.606689)" width="365.035" />
    <rect fill="#CAB8FF" height="166" rx="20" width="365" x="5.00195" y="10.6067" />
    <mask style="mask-type:alpha" height="167" id="mask0_4706_8632" maskUnits="userSpaceOnUse" width="366"
        x="5" y="10">
        <rect fill="#FFCB43" height="166" rx="20" width="365" x="5.00195" y="10.6067" />
    </mask>
    <g mask="url(#mask0_4706_8632)">
        <circle cx="380.301" cy="165.809" r="85" stroke="white" stroke-width="30" />
        <mask style="mask-type:alpha" height="201" id="mask1_4706_8632" maskUnits="userSpaceOnUse" width="201"
            x="280" y="65">
            <circle cx="380.301" cy="165.809" r="85" stroke="white" stroke-width="30" />
        </mask>
        <g mask="url(#mask1_4706_8632)">
            <circle cx="286.801" cy="97.3087" fill="black" r="1.5" />
            <circle cx="286.801" cy="110.309" fill="black" r="1.5" />
            <circle cx="286.801" cy="123.309" fill="black" r="1.5" />
            <circle cx="286.801" cy="135.309" fill="black" r="1.5" />
            <circle cx="286.801" cy="148.309" fill="black" r="1.5" />
            <circle cx="286.801" cy="161.309" fill="black" r="1.5" />
            <circle cx="299.801" cy="97.3087" fill="black" r="1.5" />
            <circle cx="299.801" cy="110.309" fill="black" r="1.5" />
            <circle cx="299.801" cy="123.309" fill="black" r="1.5" />
            <circle cx="299.801" cy="135.309" fill="black" r="1.5" />
            <circle cx="299.801" cy="148.309" fill="black" r="1.5" />
            <circle cx="299.801" cy="161.309" fill="black" r="1.5" />
            <circle cx="311.801" cy="97.3087" fill="black" r="1.5" />
            <circle cx="311.801" cy="110.309" fill="black" r="1.5" />
            <circle cx="311.801" cy="123.309" fill="black" r="1.5" />
            <circle cx="311.801" cy="135.309" fill="black" r="1.5" />
            <circle cx="311.801" cy="148.309" fill="black" r="1.5" />
            <circle cx="311.801" cy="161.309" fill="black" r="1.5" />
            <circle cx="324.801" cy="97.3087" fill="black" r="1.5" />
            <circle cx="324.801" cy="110.309" fill="black" r="1.5" />
            <circle cx="324.801" cy="123.309" fill="black" r="1.5" />
            <circle cx="324.801" cy="135.309" fill="black" r="1.5" />
            <circle cx="324.801" cy="148.309" fill="black" r="1.5" />
            <circle cx="324.801" cy="161.309" fill="black" r="1.5" />
            <circle cx="324.801" cy="71.3087" fill="black" r="1.5" />
            <circle cx="324.801" cy="84.3087" fill="black" r="1.5" />
            <circle cx="324.801" cy="97.3087" fill="black" r="1.5" />
            <circle cx="337.801" cy="71.3087" fill="black" r="1.5" />
            <circle cx="337.801" cy="84.3087" fill="black" r="1.5" />
            <circle cx="337.801" cy="97.3087" fill="black" r="1.5" />
            <circle cx="350.801" cy="71.3087" fill="black" r="1.5" />
            <circle cx="350.801" cy="84.3087" fill="black" r="1.5" />
            <circle cx="350.801" cy="97.3087" fill="black" r="1.5" />
            <circle cx="362.801" cy="71.3087" fill="black" r="1.5" />
            <circle cx="362.801" cy="84.3087" fill="black" r="1.5" />
            <circle cx="362.801" cy="97.3087" fill="black" r="1.5" />
            <circle cx="286.801" cy="172.309" fill="black" r="1.5" />
            <circle cx="299.801" cy="172.309" fill="black" r="1.5" />
            <circle cx="311.801" cy="172.309" fill="black" r="1.5" />
            <circle cx="324.801" cy="172.309" fill="black" r="1.5" />
        </g>
    </g>
    <rect fill="black" height="21" transform="rotate(-38.45 120.301 31.9181)" width="2" x="120.301"
        y="31.9181" />
    <rect fill="black" height="21" transform="rotate(60.55 245.588 127.809)" width="2" x="245.588"
        y="127.809" />
    <rect fill="white" height="21" transform="rotate(28.55 248.338 28.8087)" width="2" x="248.338"
        y="28.8087" />
    <rect fill="white" height="34.8479" transform="rotate(-58.4151 137.301 139.068)" width="3"
        x="137.301" y="139.068" />
</svg>
